<svg xmlns="http://www.w3.org/2000/svg" version="1.1" xmlns:xlink="http://www.w3.org/1999/xlink" xmlns:svgjs="http://svgjs.dev/svgjs" width="2000" height="1500" viewBox="0 0 2000 1500"><rect width="2000" height="1500" fill="#ffffff"></rect><g transform="matrix(0.75,0,0,0.75,249.5460955645292,573.0890935283533)"><svg viewBox="0 0 326 77" data-background-color="#ffffff" preserveAspectRatio="xMidYMid meet" height="472" width="2000" xmlns="http://www.w3.org/2000/svg" xmlns:xlink="http://www.w3.org/1999/xlink"><g id="tight-bounds" transform="matrix(1,0,0,1,0.09864856397564381,-0.01937910079999483)"><svg viewBox="0 0 325.8027028720487 77.03875820159999" height="77.03875820159999" width="325.8027028720487"><g><svg viewBox="0 0 325.8027028720487 77.03875820159999" height="77.03875820159999" width="325.8027028720487"><g><svg viewBox="0 0 325.8027028720487 77.03875820159999" height="77.03875820159999" width="325.8027028720487"><g id="textblocktransform"><svg viewBox="0 0 325.8027028720487 77.03875820159999" height="77.03875820159999" width="325.8027028720487" id="textblock"><g><svg viewBox="0 0 325.8027028720487 50.48159999999999" height="50.48159999999999" width="325.8027028720487"><g><svg><g></g><g></g></svg></g><g><svg><g><svg></svg></g><g></g></svg></g><g id="text-0"><svg viewBox="0 0 325.8027028720487 50.48159999999999" height="50.48159999999999" width="325.8027028720487"><g transform="matrix(1,0,0,1,0,0)"><svg width="256.982895" viewBox="2.1 -39 244.33 48" height="50.48159999999999" data-palette-color="#ff7b73"><path d="M12.2-2.05L12.2-2.05Q14.9-2.05 16.68-3.13 18.45-4.2 18.45-6.15L18.45-6.15Q18.45-7.7 17.35-8.68 16.25-9.65 14.63-10.25 13-10.85 11.35-11.35L11.35-11.35Q9.3-12 7.4-12.9 5.5-13.8 4.3-15.4 3.1-17 3.1-19.55L3.1-19.55Q3.1-23.15 5.73-25.33 8.35-27.5 13.05-27.5L13.05-27.5Q17.25-27.5 19.73-25.75 22.2-24 22.2-21.05L22.2-21.05Q22.2-19.45 21.43-18.53 20.65-17.6 19.25-17.6L19.25-17.6Q17.95-17.6 17.15-18.32 16.35-19.05 16.35-20.1L16.35-20.1Q16.35-21.05 16.85-21.83 17.35-22.6 18.15-22.95L18.15-22.95Q17.4-23.95 16.23-24.45 15.05-24.95 13.25-24.95L13.25-24.95Q10.45-24.95 9.08-23.9 7.7-22.85 7.7-20.9L7.7-20.9Q7.7-19.45 8.38-18.57 9.05-17.7 10.35-17.13 11.65-16.55 13.5-15.95L13.5-15.95Q15.3-15.4 17.03-14.78 18.75-14.15 20.18-13.23 21.6-12.3 22.45-10.95 23.3-9.6 23.3-7.6L23.3-7.6Q23.3-5.05 21.83-3.23 20.35-1.4 17.8-0.45 15.25 0.5 12 0.5L12 0.5Q7.5 0.5 4.8-1.3 2.1-3.1 2.1-6.1L2.1-6.1Q2.1-7.85 2.95-8.85 3.8-9.85 5.25-9.85L5.25-9.85Q6.45-9.85 7.35-9.15 8.25-8.45 8.25-7.3L8.25-7.3Q8.25-6.35 7.7-5.5 7.15-4.65 6.45-4.25L6.45-4.25Q7.05-3.35 8.55-2.7 10.05-2.05 12.2-2.05ZM35.7-3.7L35.7 5.75 40.55 6.7 40.55 9 26.5 9 26.5 6.7 30.35 5.75 30.35-23.75 26.5-24.7 26.5-27 34.2-27 34.95-23.15Q36.55-25.65 38.57-26.58 40.6-27.5 43.15-27.5L43.15-27.5Q45.7-27.5 47.77-26.75 49.85-26 51.15-24.35L51.15-24.35Q52.65-22.45 53.52-19.78 54.4-17.1 54.4-14L54.4-14Q54.4-10.8 53.42-7.98 52.45-5.15 50.8-3.25L50.8-3.25Q48 0 42.75 0L42.75 0Q40.6 0 38.87-0.83 37.15-1.65 35.7-3.7L35.7-3.7ZM35.65-13.95L35.65-13.95Q35.65-11.1 36.1-8.95 36.55-6.8 37.35-5.5L37.35-5.5Q38.15-4.25 39.32-3.55 40.5-2.85 42.25-2.85L42.25-2.85Q43.9-2.85 45.07-3.48 46.25-4.1 47-5.2L47-5.2Q47.85-6.45 48.25-8.65 48.65-10.85 48.65-13.55L48.65-13.55Q48.65-16.35 48.2-18.53 47.75-20.7 46.95-22.1L46.95-22.1Q46.15-23.4 45-24.03 43.85-24.65 42.1-24.65L42.1-24.65Q40.45-24.65 39.25-24.08 38.05-23.5 37.35-22.35L37.35-22.35Q36.6-21.05 36.12-18.95 35.65-16.85 35.65-13.95ZM72.95-33.6L67.75-32.55 67.75-3.25 80.84-3.25 82.55-11.9 85.8-11.9 85.8 0 57.55 0 57.55-2.4 62.25-3.45 62.25-32.55 57.55-33.6 57.55-36 72.95-36 72.95-33.6ZM111.19-25.1L111.19-11.9 108.14-11.9 107.24-16.85 99.44-16.85 99.44-3.25 114.09-3.25 115.59-11.15 118.99-11.15 118.99 0 89.24 0 89.24-2.4 93.94-3.45 93.94-32.55 89.24-33.6 89.24-36 117.89-36 117.89-25.4 114.79-25.4 113.24-32.85 99.44-32.85 99.44-20.1 107.24-20.1 108.14-25.1 111.19-25.1ZM123.94-2.4L128.14-3.45 128.14-32.55 123.94-33.6 123.94-36 134.14-36 152.19-8.75 152.19-32.55 147.99-33.6 147.99-36 160.14-36 160.14-33.6 155.94-32.55 155.94 0 151.69 0 131.89-29.55 131.89-3.45 136.09-2.4 136.09 0 123.94 0 123.94-2.4ZM173.94-32.75L173.94-3.25 181.19-3.25Q183.89-3.25 185.79-4.05 187.69-4.85 188.99-6.55L188.99-6.55Q190.34-8.3 191.04-11.08 191.74-13.85 191.74-17.7L191.74-17.7Q191.74-25.25 188.99-29.05L188.99-29.05Q187.64-30.95 185.61-31.85 183.59-32.75 180.69-32.75L180.69-32.75 173.94-32.75ZM164.24-33.6L164.24-36 181.54-36Q188.99-36 193.14-31.8L193.14-31.8Q195.49-29.4 196.74-25.9 197.99-22.4 197.99-18.4L197.99-18.4Q197.99-14.2 196.66-10.53 195.34-6.85 192.99-4.35L192.99-4.35Q188.84 0 181.09 0L181.09 0 164.24 0 164.24-2.4 168.44-3.45 168.44-32.55 164.24-33.6ZM205.99-3.25L205.99-23.75 202.14-24.7 202.14-27 211.34-27 211.34-3.25 215.19-2.3 215.19 0 202.14 0 202.14-2.3 205.99-3.25ZM205.34-34.9L205.34-34.9Q205.34-36.4 206.24-37.3 207.14-38.2 208.64-38.2L208.64-38.2Q210.19-38.2 211.09-37.3 211.99-36.4 211.99-34.9L211.99-34.9Q211.99-33.45 211.11-32.55 210.24-31.65 208.64-31.65L208.64-31.65Q207.09-31.65 206.21-32.52 205.34-33.4 205.34-34.9ZM218.48-13.3L218.48-13.3Q218.48-16.6 219.36-19.53 220.23-22.45 221.88-24.25L221.88-24.25Q223.33-25.85 225.33-26.68 227.33-27.5 229.93-27.5L229.93-27.5Q232.18-27.5 233.98-26.65 235.78-25.8 237.23-23.6L237.23-23.6 237.23-35.75 233.38-36.7 233.38-39 242.58-39 242.58-3.25 246.43-2.3 246.43 0 238.18 0.5 237.78-3.6Q236.23-1.3 234.28-0.4 232.33 0.5 229.88 0.5L229.88 0.5Q227.28 0.5 225.28-0.28 223.28-1.05 221.93-2.65L221.93-2.65Q220.38-4.55 219.43-7.3 218.48-10.05 218.48-13.3ZM237.23-13.3L237.23-13.3Q237.23-16.3 236.78-18.53 236.33-20.75 235.53-22.05L235.53-22.05Q234.73-23.3 233.58-23.98 232.43-24.65 230.63-24.65L230.63-24.65Q229.13-24.65 227.86-24.08 226.58-23.5 225.83-22.3L225.83-22.3Q224.98-21.05 224.61-18.8 224.23-16.55 224.23-13.75L224.23-13.75Q224.23-10.75 224.68-8.55 225.13-6.35 225.88-5L225.88-5Q226.68-3.75 227.88-3.05 229.08-2.35 230.78-2.35L230.78-2.35Q232.33-2.35 233.58-2.9 234.83-3.45 235.53-4.65L235.53-4.65Q236.33-6 236.78-8.2 237.23-10.4 237.23-13.3Z" opacity="1" transform="matrix(1,0,0,1,0,0)" fill="#ff7b73" class="wordmark-text-0" data-fill-palette-color="primary"></path></svg></g><g><svg xmlns="http://www.w3.org/2000/svg" xmlns:xlink="http://www.w3.org/1999/xlink" version="1.1" x="275.318895" y="0" viewBox="14.229420306512784 14.32031900378433 71.46545765764024 71.4623321686357" enable-background="new 0 0 100 100" xml:space="preserve" height="50.48159999999999" width="50.48380787204872" class="icon-cg-0" data-fill-palette-color="accent" id="cg-0"><path d="M62.648 14.41c-7.396-0.624-14.651 2.03-19.906 7.285-3.807 3.807-6.268 8.75-7.065 14.054-5.283 0.785-10.225 3.236-14.085 7.096-4.19 4.19-6.772 9.755-7.272 15.667-0.563 6.697 1.512 13.212 5.848 18.346 4.335 5.136 10.413 8.273 17.106 8.834 7.398 0.628 14.655-2.029 19.91-7.284 3.805-3.805 6.265-8.749 7.062-14.053 5.283-0.784 10.227-3.235 14.086-7.096 4.189-4.189 6.773-9.754 7.273-15.67C86.77 27.771 76.473 15.578 62.648 14.41zM55.561 76.783c-4.597 4.596-11.109 7.21-18.092 6.621-12.582-1.06-21.918-12.119-20.858-24.7 0.472-5.594 2.923-10.55 6.606-14.232 3.273-3.273 7.529-5.515 12.226-6.336-0.347 6.424 1.708 12.638 5.875 17.574 4.333 5.134 10.411 8.272 17.105 8.835 1.166 0.1 2.327 0.106 3.479 0.045C61.069 69.348 58.789 73.555 55.561 76.783zM62.178 62.248c-1.171 0.082-2.354 0.109-3.561 0.008-12.482-1.05-21.755-11.945-20.866-24.399 1.169-0.083 2.353-0.11 3.558-0.008C53.788 38.903 63.064 49.792 62.178 62.248zM83.315 41.397c-0.474 5.596-2.924 10.554-6.606 14.237-3.275 3.274-7.531 5.515-12.228 6.336C65.207 48.47 55.063 36.705 41.5 35.559c-1.164-0.098-2.324-0.106-3.475-0.044 0.832-4.758 3.113-8.964 6.341-12.193 4.596-4.596 11.109-7.211 18.09-6.621C75.037 17.763 84.375 28.817 83.315 41.397z" fill="#ff7b73" data-fill-palette-color="accent"></path><path d="M49.384 64.735c-1.677-0.739-3.272-1.645-4.772-2.708-0.927-0.657-1.816-1.369-2.662-2.144-0.861-0.788-1.692-1.613-2.459-2.517-0.019-0.022-0.042-0.043-0.061-0.065-0.542-0.641-1.042-1.309-1.52-1.99-0.549-0.786-1.045-1.602-1.508-2.434-0.364-0.656-0.699-1.324-1.008-2.006-0.354-0.782-0.671-1.578-0.95-2.39-0.223-0.648-0.419-1.305-0.593-1.97-0.203-0.773-0.373-1.557-0.507-2.349-0.11-0.644-0.194-1.292-0.257-1.946-0.031-0.311-0.077-0.62-0.097-0.933-0.668 0.218-1.318 0.476-1.956 0.76-1.053 0.47-2.062 1.028-3.019 1.67-0.922 0.618-1.794 1.315-2.611 2.085-0.147 0.139-0.298 0.273-0.442 0.417-0.436 0.436-0.848 0.891-1.24 1.361-0.574 0.689-1.085 1.423-1.562 2.178-0.375 0.594-0.72 1.204-1.031 1.833-0.359 0.724-0.683 1.464-0.953 2.227-0.218 0.613-0.401 1.24-0.56 1.875-0.186 0.746-0.323 1.506-0.424 2.273-0.041 0.315-0.095 0.628-0.122 0.946-0.027 0.321-0.022 0.641-0.034 0.961-0.03 0.775-0.018 1.545 0.04 2.31 0.049 0.652 0.128 1.3 0.239 1.94 0.138 0.796 0.312 1.581 0.544 2.353 0.201 0.672 0.433 1.335 0.704 1.984 0.345 0.827 0.752 1.628 1.207 2.408 0.411 0.703 0.871 1.38 1.37 2.038 0.222 0.293 0.431 0.594 0.67 0.877 0.483 0.572 0.999 1.106 1.534 1.617 0.834 0.796 1.73 1.51 2.675 2.146 1.964 1.324 4.146 2.282 6.464 2.853 1.042 0.257 2.103 0.454 3.192 0.546 1.064 0.09 2.12 0.066 3.168-0.009 2.392-0.17 4.716-0.755 6.883-1.729 1.045-0.47 2.054-1.022 3.013-1.668 0.919-0.616 1.788-1.315 2.608-2.085 0.151-0.144 0.316-0.269 0.464-0.416 0.435-0.435 0.826-0.899 1.216-1.366 0.581-0.692 1.121-1.412 1.6-2.169 0.375-0.593 0.709-1.209 1.02-1.836 0.358-0.723 0.675-1.464 0.943-2.228 0.048-0.134 0.111-0.26 0.156-0.394-0.179-0.012-0.356-0.025-0.532-0.04C55.116 66.745 52.149 65.953 49.384 64.735z" fill="#ff7b73" data-fill-palette-color="accent"></path><path d="M43.815 51.052L54.95 47.54c-0.607-0.724-1.259-1.412-1.96-2.046l-10.529 3.321C42.864 49.591 43.318 50.336 43.815 51.052z" fill="#ff7b73" data-fill-palette-color="accent"></path><path d="M47.913 42.134l-7.13 2.249c0.208 0.827 0.469 1.632 0.776 2.419l9.346-2.948C49.961 43.201 48.963 42.623 47.913 42.134z" fill="#ff7b73" data-fill-palette-color="accent"></path><path d="M41.102 40.309c-0.299-0.025-0.605-0.042-0.924-0.05 0.025 0.662 0.086 1.316 0.175 1.963l4.163-1.313C43.412 40.619 42.274 40.409 41.102 40.309z" fill="#ff7b73" data-fill-palette-color="accent"></path><path d="M58.824 59.795c0.301 0.025 0.607 0.042 0.926 0.051-0.02-0.525-0.073-1.043-0.133-1.559l-3.442 1.086C57.04 59.562 57.919 59.719 58.824 59.795z" fill="#ff7b73" data-fill-palette-color="accent"></path><path d="M52.566 58.213l6.684-2.108c-0.191-0.831-0.45-1.637-0.742-2.43l-9.067 2.86C50.426 57.181 51.47 57.742 52.566 58.213z" fill="#ff7b73" data-fill-palette-color="accent"></path><path d="M47.283 54.918l10.356-3.267c-0.386-0.777-0.806-1.537-1.283-2.259l-11.098 3.501C45.888 53.612 46.56 54.294 47.283 54.918z" fill="#ff7b73" data-fill-palette-color="accent"></path></svg></g></svg></g></svg></g><g transform="matrix(1,0,0,1,0,62.39909420159999)"><svg viewBox="0 0 325.8027028720487 14.639663999999996" height="14.639663999999996" width="325.8027028720487"><g transform="matrix(1,0,0,1,0,0)"><svg width="325.8027028720487" viewBox="2.1 -33.3 751.1 33.75" height="14.639663999999996" data-palette-color="#58bf81"><path d="M15.95-20.4L14.45-17.35Q13.85-18.35 13.2-18.6 12.55-18.85 11.7-18.85L11.7-18.85Q11.15-18.85 10.53-18.6 9.9-18.35 9.3-17.95 8.7-17.55 8.13-17.07 7.55-16.6 7.15-16.2L7.15-16.2 7.15-3.2Q7.15-2.8 7.25-2.35 7.35-1.9 7.58-1.48 7.8-1.05 8.08-0.78 8.35-0.5 8.75-0.5L8.75-0.5 8.75 0 2.25 0 2.25-0.5Q2.6-0.5 2.9-0.78 3.2-1.05 3.43-1.48 3.65-1.9 3.75-2.35 3.85-2.8 3.85-3.2L3.85-3.2 3.85-17.15Q3.85-17.85 3.4-18.55 2.95-19.25 2.1-19.45L2.1-19.45 2.1-19.85 7.15-21.35 7.15-18.35Q7.6-18.9 8.1-19.43 8.6-19.95 9.22-20.38 9.85-20.8 10.6-21.08 11.35-21.35 12.35-21.35L12.35-21.35Q13.05-21.35 14.15-21.05 15.25-20.75 15.95-20.4L15.95-20.4ZM57.39-10.1L40.04-10.1Q40.24-8.35 40.89-6.78 41.54-5.2 42.62-4 43.69-2.8 45.24-2.08 46.79-1.35 48.84-1.35L48.84-1.35Q49.94-1.35 51.17-1.68 52.39-2 53.44-2.6 54.49-3.2 55.32-4.08 56.14-4.95 56.44-6.05L56.44-6.05 56.89-6.05 56.89-2.3Q56.59-2.3 56.22-2.1 55.84-1.9 55.34-1.6L55.34-1.6Q54.34-1 52.64-0.33 50.94 0.35 48.14 0.35L48.14 0.35Q45.89 0.35 43.87-0.3 41.84-0.95 40.29-2.3 38.74-3.65 37.82-5.75 36.89-7.85 36.89-10.75L36.89-10.75Q36.89-12.6 37.52-14.5 38.14-16.4 39.42-17.93 40.69-19.45 42.69-20.4 44.69-21.35 47.49-21.35L47.49-21.35Q49.99-21.35 51.87-20.5 53.74-19.65 54.97-18.15 56.19-16.65 56.79-14.6 57.39-12.55 57.39-10.1L57.39-10.1ZM47.29-19.7L47.29-19.7Q45.54-19.7 44.27-19 42.99-18.3 42.09-17.2 41.19-16.1 40.69-14.7 40.19-13.3 40.04-11.9L40.04-11.9 54.29-11.9Q54.24-13.35 53.77-14.75 53.29-16.15 52.44-17.25 51.59-18.35 50.29-19.03 48.99-19.7 47.29-19.7ZM99.84-12.9L99.84-3.25Q99.84-2.85 99.94-2.38 100.04-1.9 100.26-1.5 100.49-1.1 100.76-0.8 101.04-0.5 101.44-0.5L101.44-0.5 101.44 0 94.99 0 94.99-0.5Q95.34-0.5 95.64-0.8 95.94-1.1 96.16-1.5 96.39-1.9 96.49-2.38 96.59-2.85 96.59-3.25L96.59-3.25 96.59-12.55Q96.59-14.35 96.09-15.7 95.59-17.05 94.74-17.95 93.89-18.85 92.81-19.28 91.74-19.7 90.64-19.7L90.64-19.7Q89.54-19.7 88.46-19.25 87.39-18.8 86.56-18.07 85.74-17.35 85.21-16.38 84.69-15.4 84.69-14.35L84.69-14.35 84.69-3.25Q84.69-2.85 84.79-2.38 84.89-1.9 85.11-1.5 85.34-1.1 85.61-0.8 85.89-0.5 86.29-0.5L86.29-0.5 86.29 0 79.79 0 79.79-0.5Q80.14-0.5 80.44-0.8 80.74-1.1 80.96-1.5 81.19-1.9 81.29-2.38 81.39-2.85 81.39-3.25L81.39-3.25 81.39-17.05Q81.39-17.9 81.14-18.68 80.89-19.45 79.69-19.5L79.69-19.5 79.69-19.95 84.69-21.55 84.69-18.8Q85.04-19.2 85.59-19.68 86.14-20.15 86.91-20.58 87.69-21 88.71-21.28 89.74-21.55 91.14-21.55L91.14-21.55Q93.49-21.55 95.14-20.75 96.79-19.95 97.84-18.68 98.89-17.4 99.36-15.88 99.84-14.35 99.84-12.9L99.84-12.9ZM135.03-19.3L129.43-19.3 129.43-7.25Q129.43-5.95 129.48-4.9 129.53-3.85 129.73-3.15 129.93-2.45 130.33-2.08 130.73-1.7 131.43-1.7L131.43-1.7Q132.48-1.7 133.41-2.7 134.33-3.7 134.58-5.1L134.58-5.1 135.03-5.1 135.03-1.45Q134.58-1.45 134.28-1.15L134.28-1.15Q133.88-0.8 133.16-0.4 132.43 0 130.98 0L130.98 0Q129.18 0 128.18-0.7 127.18-1.4 126.73-2.55 126.28-3.7 126.21-5.1 126.13-6.5 126.13-7.95L126.13-7.95 126.13-19.3 123.33-19.3 123.33-21 126.13-21 126.13-25.45Q126.13-26.3 125.91-27.03 125.68-27.75 124.43-27.8L124.43-27.8 124.43-28.3 129.43-29.9 129.43-21 135.03-21 135.03-19.3ZM175.03 0L170.18 0 170.18-2.55 169.93-2.3Q168.68-1.05 167.05-0.35 165.43 0.35 163.13 0.35L163.13 0.35Q161.38 0.35 160.13-0.05 158.88-0.45 158.08-1.18 157.28-1.9 156.9-2.85 156.53-3.8 156.53-4.85L156.53-4.85Q156.53-6.55 157.45-7.85 158.38-9.15 160.13-10.15 161.88-11.15 164.4-11.98 166.93-12.8 170.18-13.6L170.18-13.6Q170.08-15.55 169.38-16.75 168.68-17.95 167.73-18.63 166.78-19.3 165.73-19.53 164.68-19.75 163.93-19.75L163.93-19.75Q162.63-19.75 161.65-19.35 160.68-18.95 159.95-18.32 159.23-17.7 158.73-16.98 158.23-16.25 157.93-15.6L157.93-15.6 157.48-15.6 157.48-19.25Q157.88-19.3 158.23-19.5 158.58-19.7 159.08-19.9L159.08-19.9Q159.83-20.2 161.13-20.78 162.43-21.35 164.78-21.35L164.78-21.35Q167.53-21.35 169.23-20.65 170.93-19.95 171.85-18.8 172.78-17.65 173.08-16.18 173.38-14.7 173.38-13.15L173.38-13.15 173.38-3.25Q173.38-2.25 173.83-1.38 174.28-0.5 175.03-0.5L175.03-0.5 175.03 0ZM169.63-4.15L170.18-4.75 170.18-11.9 169.68-11.8Q168.48-11.5 166.75-11 165.03-10.5 163.48-9.7 161.93-8.9 160.83-7.8 159.73-6.7 159.73-5.25L159.73-5.25Q159.73-3.65 161.03-2.6 162.33-1.55 164.43-1.55L164.43-1.55Q166.08-1.55 167.33-2.27 168.58-3 169.63-4.15L169.63-4.15ZM214.27-5.7L214.27-5.7Q214.27-4.4 213.62-3.3 212.97-2.2 211.85-1.38 210.72-0.55 209.22-0.08 207.72 0.4 205.97 0.4L205.97 0.4Q203.82 0.4 202.47-0.18 201.12-0.75 200.17-1.35L200.17-1.35Q199.52-1.75 198.97-2.02 198.42-2.3 197.77-2.3L197.77-2.3 197.77-6.1 198.27-6.1Q198.42-5.4 199.15-4.58 199.87-3.75 200.9-3.05 201.92-2.35 203.15-1.88 204.37-1.4 205.62-1.4L205.62-1.4Q206.52-1.4 207.47-1.6 208.42-1.8 209.2-2.25 209.97-2.7 210.5-3.38 211.02-4.05 211.02-5L211.02-5Q211.02-5.95 210.47-6.65 209.92-7.35 209.07-7.88 208.22-8.4 207.12-8.8 206.02-9.2 204.92-9.55L204.92-9.55Q203.62-9.95 202.3-10.45 200.97-10.95 199.92-11.63 198.87-12.3 198.22-13.28 197.57-14.25 197.57-15.6L197.57-15.6Q197.57-16.75 198-17.8 198.42-18.85 199.4-19.63 200.37-20.4 201.92-20.88 203.47-21.35 205.67-21.35L205.67-21.35Q207.62-21.35 208.7-21.03 209.77-20.7 210.47-20.35L210.47-20.35Q210.92-20.1 211.37-19.98 211.82-19.85 212.37-19.85L212.37-19.85 212.37-16.35 211.97-16.35Q211.07-18 209.22-18.85 207.37-19.7 205.42-19.7L205.42-19.7Q204.17-19.7 203.27-19.38 202.37-19.05 201.8-18.57 201.22-18.1 200.95-17.5 200.67-16.9 200.67-16.3L200.67-16.3Q200.67-15.45 201.15-14.85 201.62-14.25 202.45-13.8 203.27-13.35 204.3-12.95 205.32-12.55 206.47-12.2L206.47-12.2Q207.87-11.75 209.27-11.23 210.67-10.7 211.77-9.95 212.87-9.2 213.57-8.18 214.27-7.15 214.27-5.7ZM288.06-10.1L270.71-10.1Q270.91-8.35 271.56-6.78 272.21-5.2 273.29-4 274.36-2.8 275.91-2.08 277.46-1.35 279.51-1.35L279.51-1.35Q280.61-1.35 281.84-1.68 283.06-2 284.11-2.6 285.16-3.2 285.99-4.08 286.81-4.95 287.11-6.05L287.11-6.05 287.56-6.05 287.56-2.3Q287.26-2.3 286.89-2.1 286.51-1.9 286.01-1.6L286.01-1.6Q285.01-1 283.31-0.33 281.61 0.35 278.81 0.35L278.81 0.35Q276.56 0.35 274.54-0.3 272.51-0.95 270.96-2.3 269.41-3.65 268.49-5.75 267.56-7.85 267.56-10.75L267.56-10.75Q267.56-12.6 268.19-14.5 268.81-16.4 270.09-17.93 271.36-19.45 273.36-20.4 275.36-21.35 278.16-21.35L278.16-21.35Q280.66-21.35 282.54-20.5 284.41-19.65 285.64-18.15 286.86-16.65 287.46-14.6 288.06-12.55 288.06-10.1L288.06-10.1ZM277.96-19.7L277.96-19.7Q276.21-19.7 274.94-19 273.66-18.3 272.76-17.2 271.86-16.1 271.36-14.7 270.86-13.3 270.71-11.9L270.71-11.9 284.96-11.9Q284.91-13.35 284.44-14.75 283.96-16.15 283.11-17.25 282.26-18.35 280.96-19.03 279.66-19.7 277.96-19.7ZM330.51-12.9L330.51-3.25Q330.51-2.85 330.61-2.38 330.71-1.9 330.93-1.5 331.16-1.1 331.43-0.8 331.71-0.5 332.11-0.5L332.11-0.5 332.11 0 325.66 0 325.66-0.5Q326.01-0.5 326.31-0.8 326.61-1.1 326.83-1.5 327.06-1.9 327.16-2.38 327.26-2.85 327.26-3.25L327.26-3.25 327.26-12.55Q327.26-14.35 326.76-15.7 326.26-17.05 325.41-17.95 324.56-18.85 323.48-19.28 322.41-19.7 321.31-19.7L321.31-19.7Q320.21-19.7 319.13-19.25 318.06-18.8 317.23-18.07 316.41-17.35 315.88-16.38 315.36-15.4 315.36-14.35L315.36-14.35 315.36-3.25Q315.36-2.85 315.46-2.38 315.56-1.9 315.78-1.5 316.01-1.1 316.28-0.8 316.56-0.5 316.96-0.5L316.96-0.5 316.96 0 310.46 0 310.46-0.5Q310.81-0.5 311.11-0.8 311.41-1.1 311.63-1.5 311.86-1.9 311.96-2.38 312.06-2.85 312.06-3.25L312.06-3.25 312.06-17.05Q312.06-17.9 311.81-18.68 311.56-19.45 310.36-19.5L310.36-19.5 310.36-19.95 315.36-21.55 315.36-18.8Q315.71-19.2 316.26-19.68 316.81-20.15 317.58-20.58 318.36-21 319.38-21.28 320.41-21.55 321.81-21.55L321.81-21.55Q324.16-21.55 325.81-20.75 327.46-19.95 328.51-18.68 329.56-17.4 330.03-15.88 330.51-14.35 330.51-12.9L330.51-12.9ZM404.84-5.7L404.84-1.8Q404.44-1.8 404.09-1.63 403.74-1.45 403.29-1.2L403.29-1.2Q402.44-0.7 401.14-0.18 399.84 0.35 397.74 0.35L397.74 0.35Q395.19 0.35 393.02-0.48 390.84-1.3 389.27-2.78 387.69-4.25 386.82-6.23 385.94-8.2 385.94-10.5L385.94-10.5Q385.94-12.65 386.72-14.6 387.49-16.55 388.94-18.05 390.39-19.55 392.52-20.45 394.64-21.35 397.34-21.35L397.34-21.35Q399.19-21.35 400.34-20.93 401.49-20.5 402.29-20.1L402.29-20.1Q402.74-19.85 403.17-19.7 403.59-19.55 404.04-19.55L404.04-19.55 404.04-15.75 403.54-15.75Q403.29-16.7 402.64-17.43 401.99-18.15 401.14-18.65 400.29-19.15 399.29-19.4 398.29-19.65 397.34-19.65L397.34-19.65Q395.29-19.65 393.74-18.93 392.19-18.2 391.19-17.03 390.19-15.85 389.69-14.35 389.19-12.85 389.19-11.25L389.19-11.25Q389.19-9.4 389.79-7.63 390.39-5.85 391.52-4.45 392.64-3.05 394.24-2.2 395.84-1.35 397.84-1.35L397.84-1.35Q399.24-1.35 400.42-1.75 401.59-2.15 402.42-2.8 403.24-3.45 403.74-4.23 404.24-5 404.34-5.7L404.34-5.7 404.84-5.7ZM436.89 0.35L436.89 0.35Q434.39 0.35 432.39-0.48 430.39-1.3 428.96-2.73 427.54-4.15 426.76-6.1 425.99-8.05 425.99-10.35L425.99-10.35Q425.99-12.8 426.84-14.83 427.69-16.85 429.19-18.3 430.69-19.75 432.74-20.55 434.79-21.35 437.19-21.35L437.19-21.35Q439.59-21.35 441.59-20.58 443.59-19.8 445.04-18.4 446.49-17 447.29-15.08 448.09-13.15 448.09-10.85L448.09-10.85Q448.09-8.7 447.36-6.68 446.64-4.65 445.21-3.1 443.79-1.55 441.71-0.6 439.64 0.35 436.89 0.35ZM436.59-19.7L436.59-19.7Q434.79-19.6 433.41-18.82 432.04-18.05 431.11-16.82 430.19-15.6 429.71-14.05 429.24-12.5 429.24-10.9L429.24-10.9Q429.24-9.05 429.81-7.33 430.39-5.6 431.46-4.25 432.54-2.9 434.04-2.1 435.54-1.3 437.39-1.3L437.39-1.3Q439.24-1.3 440.66-2.1 442.09-2.9 443.04-4.17 443.99-5.45 444.46-7.05 444.94-8.65 444.94-10.25L444.94-10.25Q444.94-11.9 444.44-13.58 443.94-15.25 442.89-16.63 441.84-18 440.26-18.85 438.69-19.7 436.59-19.7ZM502.73-12.6L502.73-3.25Q502.73-2.85 502.83-2.38 502.93-1.9 503.13-1.5 503.33-1.1 503.61-0.8 503.88-0.5 504.28-0.5L504.28-0.5 504.28 0 497.78 0 497.78-0.5Q498.18-0.5 498.48-0.8 498.78-1.1 499.01-1.5 499.23-1.9 499.33-2.38 499.43-2.85 499.43-3.25L499.43-3.25 499.43-14.05Q499.43-15.2 499.11-16.25 498.78-17.3 498.13-18.07 497.48-18.85 496.53-19.33 495.58-19.8 494.38-19.8L494.38-19.8Q493.03-19.8 492.06-19.18 491.08-18.55 490.46-17.65 489.83-16.75 489.53-15.83 489.23-14.9 489.23-14.3L489.23-14.3 489.23-3.25Q489.23-2.85 489.33-2.38 489.43-1.9 489.66-1.5 489.88-1.1 490.16-0.8 490.43-0.5 490.83-0.5L490.83-0.5 490.83 0 484.38 0 484.38-0.5Q484.73-0.5 485.03-0.8 485.33-1.1 485.56-1.5 485.78-1.9 485.88-2.38 485.98-2.85 485.98-3.25L485.98-3.25 485.98-14.35Q485.98-15.55 485.56-16.57 485.13-17.6 484.41-18.3 483.68-19 482.76-19.4 481.83-19.8 480.88-19.8L480.88-19.8Q479.58-19.8 478.61-19.3 477.63-18.8 477.01-18.05 476.38-17.3 476.06-16.43 475.73-15.55 475.73-14.75L475.73-14.75 475.73-3.25Q475.73-2.85 475.83-2.38 475.93-1.9 476.16-1.5 476.38-1.1 476.66-0.8 476.93-0.5 477.33-0.5L477.33-0.5 477.33 0 470.88 0 470.88-0.5Q471.23-0.5 471.53-0.8 471.83-1.1 472.06-1.5 472.28-1.9 472.38-2.38 472.48-2.85 472.48-3.25L472.48-3.25 472.48-16.6Q472.48-17 472.43-17.5 472.38-18 472.23-18.45 472.08-18.9 471.73-19.2 471.38-19.5 470.78-19.5L470.78-19.5 470.78-19.95 475.73-21.6 475.73-19.05Q476.48-19.9 477.81-20.7 479.13-21.5 481.28-21.5L481.28-21.5Q482.68-21.5 483.78-21.1 484.88-20.7 485.71-20.08 486.53-19.45 487.13-18.65 487.73-17.85 488.13-17.1L488.13-17.1Q488.53-17.85 489.08-18.63 489.63-19.4 490.41-20.05 491.18-20.7 492.26-21.1 493.33-21.5 494.78-21.5L494.78-21.5Q497.58-21.5 499.18-20.5 500.78-19.5 501.56-18.1 502.33-16.7 502.53-15.18 502.73-13.65 502.73-12.6L502.73-12.6ZM547.38-21.55L547.38-3.25Q547.38-2.9 547.48-2.43 547.58-1.95 547.75-1.53 547.93-1.1 548.23-0.8 548.53-0.5 548.93-0.5L548.93-0.5 548.93 0 544.08 0 544.08-2.75Q543.33-1.65 541.88-0.6 540.43 0.45 538.13 0.45L538.13 0.45Q535.23 0.45 533.53-0.55 531.83-1.55 530.93-3.1 530.03-4.65 529.78-6.48 529.53-8.3 529.53-9.9L529.53-9.9 529.53-17.05Q529.53-17.5 529.5-17.93 529.48-18.35 529.3-18.7 529.13-19.05 528.78-19.28 528.43-19.5 527.78-19.5L527.78-19.5 527.78-19.95 532.83-21.55 532.83-8.8Q532.83-5 534.48-3.2 536.13-1.4 538.53-1.4L538.53-1.4Q539.83-1.4 540.85-1.98 541.88-2.55 542.6-3.35 543.33-4.15 543.7-5 544.08-5.85 544.08-6.4L544.08-6.4 544.08-17.05Q544.08-17.5 544.05-17.93 544.03-18.35 543.85-18.7 543.68-19.05 543.33-19.28 542.98-19.5 542.33-19.5L542.33-19.5 542.33-19.95 547.38-21.55ZM592.07-12.9L592.07-3.25Q592.07-2.85 592.17-2.38 592.27-1.9 592.5-1.5 592.72-1.1 593-0.8 593.27-0.5 593.67-0.5L593.67-0.5 593.67 0 587.22 0 587.22-0.5Q587.57-0.5 587.87-0.8 588.17-1.1 588.4-1.5 588.62-1.9 588.72-2.38 588.82-2.85 588.82-3.25L588.82-3.25 588.82-12.55Q588.82-14.35 588.32-15.7 587.82-17.05 586.97-17.95 586.12-18.85 585.05-19.28 583.97-19.7 582.87-19.7L582.87-19.7Q581.77-19.7 580.7-19.25 579.62-18.8 578.8-18.07 577.97-17.35 577.45-16.38 576.92-15.4 576.92-14.35L576.92-14.35 576.92-3.25Q576.92-2.85 577.02-2.38 577.12-1.9 577.35-1.5 577.57-1.1 577.85-0.8 578.12-0.5 578.52-0.5L578.52-0.5 578.52 0 572.02 0 572.02-0.5Q572.37-0.5 572.67-0.8 572.97-1.1 573.2-1.5 573.42-1.9 573.52-2.38 573.62-2.85 573.62-3.25L573.62-3.25 573.62-17.05Q573.62-17.9 573.37-18.68 573.12-19.45 571.92-19.5L571.92-19.5 571.92-19.95 576.92-21.55 576.92-18.8Q577.27-19.2 577.82-19.68 578.37-20.15 579.15-20.58 579.92-21 580.95-21.28 581.97-21.55 583.37-21.55L583.37-21.55Q585.72-21.55 587.37-20.75 589.02-19.95 590.07-18.68 591.12-17.4 591.6-15.88 592.07-14.35 592.07-12.9L592.07-12.9ZM623.97 0L617.47 0 617.47-0.5Q617.87-0.5 618.17-0.8 618.47-1.1 618.67-1.5 618.87-1.9 618.97-2.38 619.07-2.85 619.07-3.25L619.07-3.25 619.07-17.1Q619.07-17.95 618.82-18.73 618.57-19.5 617.37-19.55L617.37-19.55 617.37-20 622.37-21.6 622.37-3.25Q622.37-2.85 622.47-2.38 622.57-1.9 622.77-1.5 622.97-1.1 623.27-0.8 623.57-0.5 623.97-0.5L623.97-0.5 623.97 0ZM617.72-26.4L617.72-26.4Q617.72-27.4 618.39-28.1 619.07-28.8 620.07-28.8L620.07-28.8Q621.07-28.8 621.77-28.1 622.47-27.4 622.47-26.4L622.47-26.4Q622.47-25.4 621.77-24.75 621.07-24.1 620.07-24.1L620.07-24.1Q619.07-24.1 618.39-24.75 617.72-25.4 617.72-26.4ZM668.31 0L663.41 0 663.41-2.2Q662.56-1.25 661.14-0.45 659.71 0.35 657.56 0.35L657.56 0.35Q654.91 0.35 652.94-0.58 650.96-1.5 649.66-3 648.36-4.5 647.74-6.43 647.11-8.35 647.11-10.4L647.11-10.4Q647.11-12.4 647.76-14.38 648.41-16.35 649.71-17.9 651.01-19.45 652.96-20.4 654.91-21.35 657.46-21.35L657.46-21.35Q659.16-21.35 660.81-20.73 662.46-20.1 663.41-19.1L663.41-19.1 663.41-28.85Q663.41-29.7 663.16-30.45 662.91-31.2 661.71-31.25L661.71-31.25 661.71-31.75 666.71-33.3 666.71-3.25Q666.71-2.85 666.81-2.38 666.91-1.9 667.11-1.5 667.31-1.1 667.61-0.8 667.91-0.5 668.31-0.5L668.31-0.5 668.31 0ZM657.91-1.3L657.91-1.3Q658.96-1.3 659.96-1.73 660.96-2.15 661.71-2.88 662.46-3.6 662.94-4.58 663.41-5.55 663.41-6.7L663.41-6.7 663.41-13.55Q663.41-14.95 662.81-16.07 662.21-17.2 661.31-18 660.41-18.8 659.34-19.23 658.26-19.65 657.26-19.65L657.26-19.65Q655.61-19.65 654.31-18.88 653.01-18.1 652.11-16.88 651.21-15.65 650.76-14.13 650.31-12.6 650.31-11.1L650.31-11.1Q650.31-9.35 650.81-7.63 651.31-5.9 652.29-4.53 653.26-3.15 654.66-2.25 656.06-1.35 657.91-1.3ZM709.4 0L704.55 0 704.55-2.55 704.3-2.3Q703.05-1.05 701.43-0.35 699.8 0.35 697.5 0.35L697.5 0.35Q695.75 0.35 694.5-0.05 693.25-0.45 692.45-1.18 691.65-1.9 691.28-2.85 690.9-3.8 690.9-4.85L690.9-4.85Q690.9-6.55 691.83-7.85 692.75-9.15 694.5-10.15 696.25-11.15 698.78-11.98 701.3-12.8 704.55-13.6L704.55-13.6Q704.45-15.55 703.75-16.75 703.05-17.95 702.1-18.63 701.15-19.3 700.1-19.53 699.05-19.75 698.3-19.75L698.3-19.75Q697-19.75 696.03-19.35 695.05-18.95 694.33-18.32 693.6-17.7 693.1-16.98 692.6-16.25 692.3-15.6L692.3-15.6 691.85-15.6 691.85-19.25Q692.25-19.3 692.6-19.5 692.95-19.7 693.45-19.9L693.45-19.9Q694.2-20.2 695.5-20.78 696.8-21.35 699.15-21.35L699.15-21.35Q701.9-21.35 703.6-20.65 705.3-19.95 706.23-18.8 707.15-17.65 707.45-16.18 707.75-14.7 707.75-13.15L707.75-13.15 707.75-3.25Q707.75-2.25 708.2-1.38 708.65-0.5 709.4-0.5L709.4-0.5 709.4 0ZM704-4.15L704.55-4.75 704.55-11.9 704.05-11.8Q702.85-11.5 701.13-11 699.4-10.5 697.85-9.7 696.3-8.9 695.2-7.8 694.1-6.7 694.1-5.25L694.1-5.25Q694.1-3.65 695.4-2.6 696.7-1.55 698.8-1.55L698.8-1.55Q700.45-1.55 701.7-2.27 702.95-3 704-4.15L704-4.15ZM753.2 0L748.3 0 748.3-2.2Q747.45-1.25 746.02-0.45 744.6 0.35 742.45 0.35L742.45 0.35Q739.8 0.35 737.82-0.58 735.85-1.5 734.55-3 733.25-4.5 732.62-6.43 732-8.35 732-10.4L732-10.4Q732-12.4 732.65-14.38 733.3-16.35 734.6-17.9 735.9-19.45 737.85-20.4 739.8-21.35 742.35-21.35L742.35-21.35Q744.05-21.35 745.7-20.73 747.35-20.1 748.3-19.1L748.3-19.1 748.3-28.85Q748.3-29.7 748.05-30.45 747.8-31.2 746.6-31.25L746.6-31.25 746.6-31.75 751.6-33.3 751.6-3.25Q751.6-2.85 751.7-2.38 751.8-1.9 752-1.5 752.2-1.1 752.5-0.8 752.8-0.5 753.2-0.5L753.2-0.5 753.2 0ZM742.8-1.3L742.8-1.3Q743.85-1.3 744.85-1.73 745.85-2.15 746.6-2.88 747.35-3.6 747.82-4.58 748.3-5.55 748.3-6.7L748.3-6.7 748.3-13.55Q748.3-14.95 747.7-16.07 747.1-17.2 746.2-18 745.3-18.8 744.22-19.23 743.15-19.65 742.15-19.65L742.15-19.65Q740.5-19.65 739.2-18.88 737.9-18.1 737-16.88 736.1-15.65 735.65-14.13 735.2-12.6 735.2-11.1L735.2-11.1Q735.2-9.35 735.7-7.63 736.2-5.9 737.17-4.53 738.15-3.15 739.55-2.25 740.95-1.35 742.8-1.3Z" opacity="1" transform="matrix(1,0,0,1,0,0)" fill="#58bf81" class="slogan-text-1" data-fill-palette-color="secondary" id="text-1"></path></svg></g></svg></g></svg></g></svg></g><g></g></svg></g><defs></defs></svg><rect width="325.8027028720487" height="77.03875820159999" fill="none" stroke="none" visibility="hidden"></rect></g></svg></g></svg>